<?xml version="1.0"?>
<svg xmlns="http://www.w3.org/2000/svg" viewBox="0 0 256 256" width="512" height="512"><path d="M161.167,187.946H94.833a2.5,2.5,0,0,1-2.165-1.25L59.5,129.25a2.5,2.5,0,0,1,0-2.5L92.668,69.3a2.5,2.5,0,0,1,2.165-1.25h66.334a2.5,2.5,0,0,1,2.165,1.25L196.5,126.75a2.5,2.5,0,0,1,0,2.5L163.332,186.7A2.5,2.5,0,0,1,161.167,187.946Zm-64.89-5h63.446L191.447,128,159.723,73.054H96.277L64.553,128Z" fill="#ebe7f2"/><path d="M130.887,128l40.6-70.325a2.5,2.5,0,1,0-4.33-2.5L128,123,88.841,55.175a2.5,2.5,0,0,0-4.33,2.5L125.113,128l-40.6,70.325a2.5,2.5,0,0,0,4.33,2.5L128,133l39.159,67.825a2.5,2.5,0,0,0,4.33-2.5Z" fill="#a58bc9"/><path d="M212.812,126.75,171.489,55.175a2.5,2.5,0,0,0-2.165-1.25H151.072l8.861-15.349a2.5,2.5,0,0,0-2.165-3.75H98.232a2.5,2.5,0,0,0-2.165,3.75l8.861,15.349H86.676a2.5,2.5,0,0,0-2.165,1.25L43.187,126.75a2.5,2.5,0,0,0,0,2.5l41.324,71.575a2.5,2.5,0,0,0,2.165,1.25h18.252l-8.861,15.349a2.5,2.5,0,0,0,2.165,3.75h59.536a2.5,2.5,0,0,0,2.165-3.75l-8.861-15.349h18.252a2.5,2.5,0,0,0,2.165-1.25l41.323-71.575A2.5,2.5,0,0,0,212.812,126.75ZM102.562,39.826h50.876l-8.14,14.1H110.7Zm39.849,19.1L128,83.886,113.589,58.925Zm11.027,157.249H102.562l8.14-14.1h34.6Zm-39.849-19.1L128,172.114l14.411,24.961Zm54.291,0H148.185l-18.02-31.211a2.5,2.5,0,0,0-4.33,0l-18.02,31.211H88.12L48.239,128,88.12,58.925h19.695l18.02,31.211a2.5,2.5,0,0,0,4.33,0l18.02-31.211H167.88L207.761,128Z" fill="#846f75"/><path d="M210.647,161.853A33.853,33.853,0,1,1,244.5,128,33.891,33.891,0,0,1,210.647,161.853Zm0-62.706A28.853,28.853,0,1,0,239.5,128,28.886,28.886,0,0,0,210.647,99.147Z" fill="#a58bc9"/><path d="M45.353,161.853A33.853,33.853,0,1,1,79.205,128,33.891,33.891,0,0,1,45.353,161.853Zm0-62.706A28.853,28.853,0,1,0,74.205,128,28.886,28.886,0,0,0,45.353,99.147Z" fill="#a58bc9"/></svg>
