<svg height="512" viewBox="0 0 256 256" width="512" xmlns="http://www.w3.org/2000/svg"><g fill="#65c1d6"><path d="m99.058 182.5a2.5 2.5 0 0 1 -2.5-2.5v-10.426l-9.95-7.558a2.5 2.5 0 1 1 3.025-3.981l10.937 8.308a2.5 2.5 0 0 1 .988 1.99v11.667a2.5 2.5 0 0 1 -2.5 2.5z"/><path d="m110 222.75h-8.75a2.5 2.5 0 0 1 -2.39-1.768l-4.839-15.791a2.5 2.5 0 0 1 2.391-3.233h6.088a2.5 2.5 0 0 1 0 5h-2.708l3.308 10.792h4.4v-26.583h-19.383a2.5 2.5 0 1 1 0-5h21.883a2.5 2.5 0 0 1 2.5 2.5v31.583a2.5 2.5 0 0 1 -2.5 2.5z"/><path d="m109.586 178.5a2.5 2.5 0 0 1 -2.5-2.5v-28.75h-10.674a2.5 2.5 0 0 1 0-5h13.174a2.5 2.5 0 0 1 2.5 2.5v27.5l14.953-6.226a2.5 2.5 0 0 1 1.922 4.617l-18.414 7.666a2.49 2.49 0 0 1 -.961.193z"/><path d="m127.509 152h-7.259a2.5 2.5 0 0 1 -2.5-2.5v-16.25h-14a2.5 2.5 0 0 1 -2.5-2.5v-10.14a2.5 2.5 0 0 1 5 0v7.64h14a2.5 2.5 0 0 1 2.5 2.5v16.25h4.759a2.5 2.5 0 0 1 0 5z"/><path d="m156.985 182.5a2.5 2.5 0 0 1 -2.5-2.5v-11.667a2.5 2.5 0 0 1 .988-1.99l10.937-8.308a2.5 2.5 0 1 1 3.025 3.981l-9.95 7.558v10.426a2.5 2.5 0 0 1 -2.5 2.5z"/><path d="m154.793 222.75h-8.75a2.5 2.5 0 0 1 -2.5-2.5v-31.583a2.5 2.5 0 0 1 2.5-2.5h21.883a2.5 2.5 0 0 1 0 5h-19.383v26.583h4.4l3.306-10.792h-2.707a2.5 2.5 0 0 1 0-5h6.088a2.5 2.5 0 0 1 2.39 3.233l-4.838 15.791a2.5 2.5 0 0 1 -2.389 1.768z"/><path d="m146.457 178.5a2.49 2.49 0 0 1 -.961-.192l-18.414-7.666a2.5 2.5 0 0 1 1.918-4.617l14.953 6.226v-27.5a2.5 2.5 0 0 1 2.5-2.5h13.174a2.5 2.5 0 0 1 0 5h-10.67v28.749a2.5 2.5 0 0 1 -2.5 2.5z"/><path d="m135.793 152h-7.259a2.5 2.5 0 1 1 0-5h4.759v-16.25a2.5 2.5 0 0 1 2.5-2.5h14v-7.64a2.5 2.5 0 0 1 5 0v10.14a2.5 2.5 0 0 1 -2.5 2.5h-14v16.25a2.5 2.5 0 0 1 -2.5 2.5z"/><path d="m88.121 170.833h-11.029a2.5 2.5 0 0 1 -2.5-2.5v-20.333a2.5 2.5 0 0 1 2.5-2.5h8.529v-5.44h-19.558a2.5 2.5 0 1 1 0-5h22.058a2.5 2.5 0 0 1 2.5 2.5v10.44a2.5 2.5 0 0 1 -2.5 2.5h-8.529v15.333h8.529a2.5 2.5 0 1 1 0 5z"/><path d="m88.117 191.167h-11.025a2.5 2.5 0 0 1 -2.5-2.5v-7.579h-8.529a2.5 2.5 0 0 1 0-5h11.029a2.5 2.5 0 0 1 2.5 2.5v7.579h8.525a2.5 2.5 0 0 1 0 5z"/><path d="m88.121 202.5h-22.058a2.5 2.5 0 1 1 0-5h22.058a2.5 2.5 0 0 1 0 5z"/><path d="m77.092 220.036a2.5 2.5 0 0 1 -1.294-.361l-11.028-6.666a2.5 2.5 0 1 1 2.586-4.28l9.736 5.885 9.731-5.884a2.5 2.5 0 1 1 2.587 4.278l-11.025 6.667a2.489 2.489 0 0 1 -1.293.361z"/><path d="m178.908 170.833h-11.029a2.5 2.5 0 0 1 0-5h8.529v-15.333h-8.529a2.5 2.5 0 0 1 -2.5-2.5v-10.44a2.5 2.5 0 0 1 2.5-2.5h22.058a2.5 2.5 0 0 1 0 5h-19.558v5.44h8.529a2.5 2.5 0 0 1 2.5 2.5v20.333a2.5 2.5 0 0 1 -2.5 2.5z"/><path d="m178.908 191.167h-11.025a2.5 2.5 0 0 1 0-5h8.525v-7.579a2.5 2.5 0 0 1 2.5-2.5h11.029a2.5 2.5 0 0 1 0 5h-8.529v7.579a2.5 2.5 0 0 1 -2.5 2.5z"/><path d="m189.937 202.5h-22.058a2.5 2.5 0 0 1 0-5h22.058a2.5 2.5 0 0 1 0 5z"/><path d="m178.908 220.036a2.489 2.489 0 0 1 -1.293-.361l-11.025-6.667a2.5 2.5 0 1 1 2.587-4.278l9.731 5.884 9.736-5.885a2.5 2.5 0 0 1 2.586 4.28l-11.03 6.666a2.5 2.5 0 0 1 -1.292.361z"/></g><path d="m132.378 85.937a6.608 6.608 0 0 1 -9.334 0 2.5 2.5 0 0 0 -3.535 3.535 11.594 11.594 0 0 0 16.4 0 2.5 2.5 0 0 0 -3.536-3.535z" fill="#846f75"/><path d="m186.139 123.23-.563-.493c-.038-.036-.078-.071-.118-.1a19.474 19.474 0 0 0 -12.473-4.525h-3.6a77.308 77.308 0 0 0 6.615-31.75c0-34.662-21.753-62.862-48.491-62.862s-48.49 28.2-48.49 62.862a77.32 77.32 0 0 0 6.617 31.745h-2.621a19.474 19.474 0 0 0 -12.473 4.525c-.007.006-.013.015-.021.022s-.018.012-.026.019l-.684.6a19.513 19.513 0 0 0 -6.248 14.285v83.476a13.527 13.527 0 0 0 25.959 5.331c9.967 7.234 23.637 11.336 38.184 11.336h.588c14.547 0 28.217-4.1 38.184-11.336a13.527 13.527 0 0 0 25.959-5.331v-83.474a19.546 19.546 0 0 0 -6.298-14.33zm-102.12-36.868c0-31.9 19.509-57.862 43.49-57.862s43.491 25.957 43.491 57.862a71.669 71.669 0 0 1 -7.151 31.745h-24.186v-14.17c12.755-5.592 21.849-19.854 21.849-36.531a2.5 2.5 0 0 0 -2.5-2.5h-.006a2.5 2.5 0 0 0 -2.5 2.5v.118c-.054 18.727-12.953 33.942-28.8 33.942-15.88 0-28.8-15.279-28.8-34.06a2.5 2.5 0 0 0 -5 0c0 16.317 8.7 30.322 21.028 36.156v14.545h-23.765a71.676 71.676 0 0 1 -7.15-31.745zm103.418 134.674a8.529 8.529 0 0 1 -17.058 0v-61.011a2.5 2.5 0 0 0 -5 0v60.886c-9.211 7.5-22.645 11.792-37.18 11.792h-.493c-14.443 0-27.874-4.292-37.085-11.792v-60.886a2.5 2.5 0 0 0 -5 0v61.011a8.529 8.529 0 0 1 -17.058 0v-83.476a14.467 14.467 0 0 1 4.6-10.572l.634-.558.009-.007a14.471 14.471 0 0 1 9.212-3.316h6.6.021.025 27.776a2.5 2.5 0 0 0 2.5-2.5v-15.194a29.291 29.291 0 0 0 14.723.219v14.975a2.5 2.5 0 0 0 2.5 2.5h35.822a14.468 14.468 0 0 1 9.193 3.3l.028.024.588.514a14.5 14.5 0 0 1 4.643 10.614z" fill="#846f75"/><path d="m128.086 208.369a2.5 2.5 0 0 0 -2.5 2.5v6.667a2.5 2.5 0 1 0 5 0v-6.667a2.5 2.5 0 0 0 -2.5-2.5z" fill="#846f75"/><path d="m96.412 63h62.6a2.5 2.5 0 0 0 0-5h-11.912v-12.75a2.5 2.5 0 0 0 -5 0v12.75h-12.3v-12.75a2.5 2.5 0 1 0 -5 0v12.75h-12.3v-12.75a2.5 2.5 0 0 0 -5 0v12.75h-11.088a2.5 2.5 0 0 0 0 5z" fill="#846f75"/><path d="m139.062 204.454h-21.953a2.5 2.5 0 0 1 -2.235-3.619l10.976-21.953a2.5 2.5 0 0 1 4.472 0l10.978 21.953a2.5 2.5 0 0 1 -2.236 3.619zm-17.908-5h13.864l-6.932-13.864z" fill="#65c1d6"/></svg>